# xmcd
#
# Track frame offsets:
#   150
#   10166
#   22464
#   35585
#   48013
#   61267
#   73962
#   85979
#   97995
#   111254
#   117993
#   128447
#
# Disc length: 1864 seconds
#
# Revision: 0
# Processed by: cddbd v1.4PL0 Copyright (c) Steve Scherf et al.
# Submitted via: uFREEDB 1.6.0
#
DISCID=9f07460c
DTITLE=Hank Williams &Hank Williams Jr. - Back To Back
DYEAR=1900
DGENRE=Country
TTITLE0=Honky Tonk Blues
TTITLE1=Your Cheatin' Heart
TTITLE2=Jambalaya (On the Bayou)
TTITLE3=Cold, Cold Heart
TTITLE4=Hey, Good Lookin'
TTITLE5=There's a Tear in my Beer
TTITLE6=Long Gone Lonesome Blues
TTITLE7=Mansion on the Hill
TTITLE8=You Win Again
TTITLE9=Kaw-Liga
TTITLE10=Moanin' the Blues
TTITLE11=I'm So Lonesome I Could Cry
EXTD=
EXTT0=
EXTT1=
EXTT2=
EXTT3=
EXTT4=
EXTT5=
EXTT6=
EXTT7=
EXTT8=
EXTT9=
EXTT10=
EXTT11=
PLAYORDER=
